<?xml version="1.0" standalone="no"?>
<!DOCTYPE svg PUBLIC "-//W3C//DTD SVG 20010904//EN"
 "http://www.w3.org/TR/2001/REC-SVG-20010904/DTD/svg10.dtd">
<svg version="1.0" xmlns="http://www.w3.org/2000/svg"
 width="1080.000000pt" height="1080.000000pt" viewBox="0 0 1080.000000 1080.000000"
 preserveAspectRatio="xMidYMid meet">

<g transform="translate(0.000000,1080.000000) scale(0.100000,-0.100000)"
fill="#000000" stroke="none">
<path d="M0 5400 l0 -5400 1777 0 c977 0 1774 2 1772 4 -12 10 -591 370 -698
433 -129 76 -537 370 -581 418 -14 15 -68 62 -120 105 -113 93 -473 455 -588
592 -112 133 -400 589 -470 743 -175 388 -267 711 -311 1100 -31 266 -30 259
-41 410 -6 77 -17 187 -24 245 -19 135 -32 565 -28 890 2 140 5 256 7 258 2 2
13 -1 24 -8 25 -13 26 -28 4 -89 -22 -63 -15 -77 44 -86 26 -4 73 -13 103 -21
59 -15 126 -19 133 -6 3 4 -2 62 -11 129 -15 117 -15 125 6 252 21 125 26 139
98 283 73 145 85 163 299 427 410 507 612 674 1050 873 109 49 111 50 195 46
93 -5 127 -18 197 -75 68 -55 127 -153 93 -153 -5 0 -10 -8 -11 -17 0 -15 -2
-15 -9 2 -5 11 -9 15 -9 8 -1 -7 -8 -10 -16 -7 -8 4 -15 1 -15 -6 0 -10 -3
-10 -14 -1 -12 10 -13 8 -9 -8 3 -12 1 -21 -6 -21 -6 0 -11 5 -11 11 0 5 -4 8
-9 5 -4 -3 -6 -16 -4 -30 7 -35 -13 -41 -26 -6 -5 17 -13 30 -16 30 -8 0 -2
-34 8 -41 5 -3 -1 -9 -12 -12 -11 -3 -20 -2 -19 2 2 22 -4 41 -12 36 -5 -3
-10 -1 -10 6 0 8 -3 9 -13 0 -8 -6 -18 -7 -23 -3 -5 4 -5 3 -1 -3 5 -5 16 -10
25 -10 9 0 18 -9 20 -20 2 -15 1 -17 -6 -6 -7 9 -12 10 -16 2 -10 -15 -33 -14
-39 2 -2 6 -3 0 -1 -15 2 -15 -1 -30 -6 -33 -6 -4 -8 -10 -5 -15 3 -5 0 -12
-6 -16 -7 -4 -9 -3 -6 3 4 6 0 13 -8 17 -8 3 -17 1 -20 -4 -10 -16 -22 -11
-28 11 -3 12 -10 18 -16 14 -6 -3 -9 -10 -6 -15 8 -12 -4 -38 -21 -44 -12 -4
-12 -2 -4 14 7 14 7 20 0 20 -5 0 -10 -5 -10 -10 0 -6 -6 -5 -14 2 -12 11 -12
16 2 33 17 20 17 20 -5 2 -22 -19 -22 -19 -2 -53 24 -44 24 -52 -1 -29 -11 10
-17 23 -13 29 3 6 -2 3 -12 -6 -16 -15 -17 -21 -6 -45 l12 -28 -21 25 c-11 14
-20 30 -21 35 0 6 -6 -2 -13 -17 -8 -20 -15 -25 -26 -18 -12 8 -12 10 3 16 9
3 17 10 17 14 0 13 -34 6 -47 -10 -7 -8 -13 -12 -13 -8 0 13 -41 -26 -50 -47
-8 -18 -9 -17 -9 7 -1 16 4 27 10 25 6 -1 14 4 16 11 3 7 1 12 -4 11 -20 -3
-34 2 -28 11 4 6 -4 6 -19 -1 -16 -8 -22 -17 -18 -27 4 -11 7 -12 10 -4 7 21
20 13 20 -13 0 -14 -4 -25 -9 -25 -5 0 -9 4 -9 9 0 13 -46 6 -65 -9 -22 -19
-30 -5 -15 29 7 18 22 32 38 37 18 5 22 9 11 11 -8 2 -20 16 -26 31 l-11 27 3
-32 c4 -34 -10 -45 -44 -36 -16 4 -21 1 -20 -13 0 -11 3 -14 6 -6 6 16 20 15
27 -3 3 -9 -3 -19 -16 -26 -15 -8 -18 -8 -14 0 10 15 -5 13 -26 -3 -10 -7 -15
-16 -11 -19 3 -4 -1 -7 -10 -7 -9 0 -17 -5 -17 -12 0 -9 -3 -9 -12 0 -8 8 -8
15 1 26 7 8 8 17 3 20 -6 3 -12 -4 -15 -16 -5 -18 -8 -19 -21 -9 -31 26 -30
76 2 136 17 30 28 55 25 55 -12 0 -133 -169 -133 -187 0 -7 -6 -16 -13 -20
-23 -14 -59 -73 -109 -177 -27 -56 -54 -109 -59 -120 -6 -10 -13 -30 -15 -45
-3 -14 -9 -30 -15 -36 -5 -5 -9 -19 -9 -32 0 -13 -3 -23 -8 -23 -4 0 -13 -26
-21 -57 -7 -32 -16 -62 -19 -68 -7 -11 -12 -27 -19 -70 -2 -16 -7 -37 -10 -45
-18 -47 -23 -202 -7 -196 7 3 10 -3 6 -16 -5 -19 -4 -19 25 -4 36 18 63 15
103 -14 20 -15 31 -17 36 -9 4 8 3 9 -4 5 -7 -4 -12 -2 -12 3 0 6 8 11 18 12
9 0 12 3 5 5 -7 3 -9 12 -6 20 3 7 9 11 14 8 5 -3 9 0 9 7 0 12 38 49 50 49 4
0 13 -7 20 -15 7 -8 8 -15 3 -15 -5 0 -10 -7 -10 -15 0 -8 6 -15 14 -15 12 0
15 -7 17 -42 0 -7 13 -32 28 -55 16 -23 28 -47 28 -52 0 -7 10 -9 24 -5 15 3
27 1 33 -8 9 -14 21 -17 108 -25 38 -3 64 -11 72 -21 8 -11 15 -13 20 -7 9 12
92 35 126 35 30 0 102 25 162 57 41 21 209 176 210 193 1 14 33 50 37 40 2 -6
13 -2 27 11 21 20 22 23 8 34 -24 17 -11 24 36 19 23 -3 38 -2 34 2 -3 4 0 12
9 18 8 6 16 20 18 31 2 11 13 25 25 31 12 6 22 15 21 19 -1 3 2 10 6 13 3 4 4
-5 2 -21 -5 -24 -3 -27 15 -21 12 4 17 2 13 -4 -3 -5 1 -13 10 -16 24 -9 36
-7 29 4 -4 6 -11 7 -17 4 -7 -4 -8 -2 -4 5 4 6 12 9 17 6 5 -4 9 0 10 7 0 7 5
2 11 -12 11 -25 11 -25 15 -2 3 12 10 22 17 22 7 0 18 18 25 40 8 26 18 40 29
40 15 0 15 2 2 10 -10 6 -11 10 -2 10 6 0 12 5 12 11 0 5 -4 7 -10 4 -6 -3 -7
1 -4 9 3 9 10 14 14 11 10 -6 23 57 46 220 9 66 18 123 21 128 2 4 0 7 -5 7
-5 0 -10 23 -11 52 -1 29 -5 55 -9 58 -4 3 -7 14 -6 25 0 11 -4 25 -8 31 -5 7
-8 16 -7 20 1 5 -3 23 -10 39 -13 31 -19 51 -20 72 -1 6 -7 18 -14 25 -7 7
-17 24 -24 38 -21 47 -161 200 -183 200 -6 0 -9 4 -5 9 3 6 -13 13 -37 18 -23
5 -43 14 -46 21 -3 9 4 11 25 6 23 -5 225 -63 366 -105 16 -4 27 -5 25 0 -5
13 -82 77 -121 100 l-38 23 6 57 c6 52 -13 183 -29 198 -10 10 -22 -9 -40 -62
-40 -119 -67 -144 -114 -107 -19 15 -25 33 -32 93 -13 107 -20 139 -29 139 -4
0 -36 -27 -71 -60 -34 -34 -64 -60 -65 -58 -1 2 -10 27 -21 56 -32 91 -64 95
-65 9 -1 -78 -8 -89 -70 -104 -30 -6 -70 -12 -90 -13 -66 0 -435 -118 -474
-150 -7 -5 -51 -30 -99 -55 -109 -58 -176 -100 -278 -178 -44 -34 -92 -71
-107 -81 -14 -11 -47 -39 -73 -63 -53 -49 -48 -47 -98 -32 -31 10 -41 9 -64
-6 -15 -10 -26 -27 -26 -39 0 -17 -12 -25 -67 -44 -38 -12 -75 -24 -84 -26 -9
-2 -39 -16 -67 -31 -47 -24 -52 -30 -63 -78 -7 -29 -13 -127 -14 -222 -1 -93
-4 -179 -8 -191 -5 -14 -22 -23 -55 -31 -26 -6 -64 -16 -85 -21 -22 -6 -39 -6
-43 -1 -3 5 6 60 20 122 14 61 42 224 61 361 20 138 52 336 71 440 l35 191
170 273 169 273 11 212 c8 176 17 249 50 427 47 253 93 401 161 519 52 91 75
121 64 86 -21 -73 -37 -188 -52 -373 l-18 -214 29 -191 c15 -106 31 -198 34
-205 5 -8 19 0 45 27 l38 39 -17 199 c-9 109 -15 216 -13 238 3 36 9 24 62
-125 32 -91 62 -169 67 -174 4 -4 61 33 127 82 152 115 249 179 348 228 44 21
81 42 82 47 2 4 9 7 16 7 16 0 110 36 151 58 17 9 32 16 35 15 5 0 28 8 75 28
11 4 34 9 50 11 17 1 37 8 45 14 15 12 126 44 162 47 10 1 18 4 18 8 0 7 29
17 75 25 61 12 37 17 -40 9 -44 -5 -95 -9 -112 -9 -18 -1 -33 -4 -33 -8 0 -3
-16 -6 -36 -5 -19 1 -39 -5 -43 -11 -9 -15 -99 -44 -112 -36 -5 3 -9 1 -9 -3
0 -8 -34 -27 -100 -56 -76 -33 -106 -48 -135 -67 -16 -11 -40 -24 -52 -29 -11
-5 -24 -15 -28 -20 -3 -6 -11 -11 -17 -11 -6 0 47 43 118 96 71 52 134 101
139 108 8 11 111 59 150 70 6 2 18 6 27 10 9 4 22 9 30 10 30 6 103 30 108 37
3 3 30 12 60 19 30 7 60 16 65 20 6 5 24 10 40 13 l30 4 -30 1 c-16 1 -59 -5
-95 -13 -36 -7 -66 -12 -68 -11 -1 2 4 68 13 147 8 79 15 154 15 167 0 54 18
12 50 -115 18 -76 36 -142 40 -146 5 -6 363 115 378 128 4 3 83 432 136 740
47 269 128 669 149 732 15 45 39 58 31 16 -3 -15 -11 -120 -17 -233 -10 -164
-10 -248 0 -420 l13 -215 72 -209 c40 -114 74 -204 76 -198 1 5 -10 106 -26
223 -25 180 -29 235 -25 347 3 73 9 134 13 137 4 2 13 -35 19 -83 10 -70 136
-592 144 -597 3 -3 1572 207 1575 211 2 1 20 85 39 186 19 101 37 190 40 198
5 13 6 13 9 0 5 -18 54 -445 54 -462 0 -31 15 17 75 238 44 161 65 259 66 299
0 33 4 80 8 105 6 40 8 34 14 -55 4 -55 7 -149 7 -210 0 -60 3 -154 7 -207 l6
-97 415 -136 c285 -94 417 -133 422 -125 4 6 32 133 64 283 75 360 76 363 72
179 -4 -150 -4 -153 17 -161 16 -7 24 -5 29 8 4 9 25 117 47 241 l39 225 -8
200 c-5 110 -12 265 -16 344 -8 167 1 178 41 48 49 -163 106 -466 131 -706 19
-183 24 -289 24 -488 l0 -253 28 -11 c15 -6 63 -20 107 -32 79 -22 80 -22 40
-27 l-40 -6 35 -6 c19 -4 62 -12 95 -18 55 -10 155 -54 264 -118 48 -28 42
-40 -11 -23 -80 26 -368 55 -384 38 -4 -4 6 -7 22 -8 16 0 37 -2 47 -4 10 -2
51 -9 90 -16 40 -6 83 -16 97 -21 14 -5 41 -12 60 -14 38 -5 186 -41 210 -51
20 -8 21 -9 55 -17 32 -8 34 -8 115 -53 30 -17 96 -52 145 -78 50 -27 166 -91
259 -142 93 -51 170 -92 171 -91 1 2 20 93 41 203 l39 200 5 -250 c3 -137 7
-247 8 -243 1 5 27 92 57 195 l56 188 9 207 c8 190 7 224 -15 410 -13 112 -26
211 -30 221 -15 38 17 13 79 -60 58 -69 68 -87 102 -192 54 -170 108 -499 129
-801 15 -211 20 -247 36 -260 14 -11 19 -32 21 -88 l3 -72 320 -445 c176 -245
323 -445 328 -445 4 0 7 8 8 18 3 56 70 -354 109 -668 11 -91 23 -171 26 -179
9 -26 53 -345 48 -350 -8 -8 -113 52 -139 79 l-24 25 20 45 c12 25 22 67 23
95 l1 50 -104 21 c-126 24 -124 21 -121 191 1 129 -14 273 -33 311 -12 23 -83
55 -151 68 -16 3 -40 10 -52 15 -13 4 -53 11 -89 15 -59 6 -65 9 -65 30 0 32
-33 48 -87 40 -40 -5 -50 -2 -101 33 -193 132 -348 218 -500 277 -37 14 -96
38 -132 54 -141 62 -483 125 -701 130 -18 0 -49 60 -49 96 0 14 -5 34 -11 45
-10 19 -12 20 -29 4 -10 -9 -24 -39 -30 -66 l-12 -49 -27 20 c-67 52 -113 81
-118 76 -3 -3 -9 -47 -14 -98 -11 -125 -14 -134 -50 -148 -30 -13 -32 -12 -84
40 -29 29 -61 70 -71 91 -19 43 -35 46 -45 8 -13 -45 -9 -93 13 -163 15 -47
18 -71 11 -73 -6 -2 -21 -13 -34 -24 -12 -10 -27 -19 -33 -19 -14 0 -110 -89
-104 -95 2 -3 96 27 209 66 214 75 306 96 280 66 -15 -19 -26 -23 -16 -7 11
17 -15 11 -37 -9 -11 -11 -26 -17 -32 -15 -7 3 -43 -26 -81 -63 -38 -38 -73
-67 -78 -65 -5 2 -7 -6 -4 -18 3 -12 0 -20 -7 -20 -18 0 -42 -33 -38 -52 2
-13 -1 -16 -12 -12 -11 4 -16 0 -16 -14 0 -11 -5 -22 -11 -24 -5 -2 -11 -11
-12 -20 -2 -9 -8 -23 -15 -31 -7 -8 -12 -19 -10 -23 1 -5 -3 -19 -10 -31 -17
-30 -43 -134 -36 -144 3 -5 1 -9 -3 -9 -5 0 -8 -12 -7 -27 1 -16 -3 -34 -9
-41 -5 -7 -7 -15 -4 -19 4 -3 2 -13 -3 -23 -5 -10 -6 -20 -3 -24 8 -8 14 -34
14 -58 0 -10 4 -20 8 -23 5 -2 6 -23 4 -45 -3 -22 -2 -48 3 -58 4 -9 8 -24 9
-32 5 -50 18 -89 28 -83 6 4 8 -2 5 -15 -4 -15 -2 -22 8 -22 9 0 14 -11 14
-27 0 -27 1 -28 52 -25 70 5 141 -25 163 -67 8 -17 18 -31 21 -31 3 0 2 5 -2
12 -4 6 -3 8 4 5 5 -4 8 -16 5 -26 -4 -15 3 -23 32 -35 20 -9 39 -15 43 -13 9
2 73 -55 68 -61 -7 -6 167 -162 182 -162 6 0 12 -4 12 -10 0 -5 19 -14 43 -21
23 -6 54 -17 69 -25 16 -8 76 -19 135 -25 60 -5 110 -14 111 -19 6 -16 42 -12
42 4 0 15 60 29 115 28 16 0 35 4 42 10 7 6 21 7 30 4 10 -4 14 -4 10 0 -11
11 13 34 37 34 13 0 30 14 46 38 13 20 25 39 25 42 0 3 6 15 13 26 6 12 10 23
8 25 -2 2 7 15 20 29 20 20 24 22 24 7 0 -11 8 -17 24 -17 14 0 32 -10 40 -22
9 -12 16 -17 16 -11 0 6 8 14 18 16 9 3 4 5 -13 6 -18 1 -25 4 -18 9 8 5 9 13
3 22 -8 13 -10 12 -10 -2 0 -15 -4 -16 -25 -6 -14 6 -25 15 -25 20 0 4 -7 8
-15 8 -8 0 -15 5 -15 11 0 5 5 7 10 4 6 -4 18 -1 26 6 10 8 18 9 22 3 7 -10
43 -27 51 -24 2 1 10 -13 18 -32 9 -21 10 -34 3 -36 -5 -2 -10 -7 -10 -12 0
-5 15 -4 32 1 40 11 38 11 38 -2 0 -5 -4 -7 -10 -4 -6 4 -9 -4 -8 -19 1 -14 4
-23 6 -21 3 2 17 -2 33 -11 16 -8 29 -11 29 -6 0 5 6 9 13 9 9 0 12 -11 9 -31
l-3 -31 24 27 c14 15 28 24 31 20 4 -3 4 1 0 11 -3 9 -11 14 -18 10 -6 -3 -8
-3 -4 2 4 4 3 14 -3 22 -14 16 3 17 19 1 8 -8 12 -8 12 -1 0 6 -7 17 -16 24
-15 12 -14 15 3 29 12 9 18 25 17 40 -2 14 4 49 14 78 16 52 16 54 -3 68 -15
11 -17 17 -7 23 10 6 10 13 -3 37 -8 16 -15 44 -15 62 0 23 -4 31 -12 26 -6
-4 -8 -3 -5 3 4 6 -5 37 -19 69 -14 33 -26 60 -25 62 1 1 1 3 0 5 0 1 -2 10
-4 21 -6 31 -48 130 -61 144 -7 6 -16 22 -20 35 -4 12 -9 24 -13 27 -3 3 -16
25 -29 49 -39 77 -57 105 -77 127 -11 13 -30 34 -43 47 -12 14 -22 28 -22 31
0 4 -12 18 -26 31 -15 14 -23 25 -19 25 7 0 -72 86 -109 118 -11 10 -30 27
-43 40 -48 45 -40 20 11 -33 72 -76 98 -126 90 -176 -4 -21 -10 -40 -15 -40
-32 -5 -44 -1 -41 11 1 10 -3 8 -13 -4 -8 -11 -15 -15 -15 -8 0 15 -27 4 -34
-14 -3 -8 -2 -12 3 -9 5 3 13 0 17 -7 4 -7 4 -10 -1 -6 -4 4 -17 3 -28 -3 -14
-8 -18 -8 -12 0 4 7 1 18 -5 26 -10 12 -9 15 8 15 12 0 24 5 28 12 5 8 2 9
-11 5 -14 -6 -17 -3 -13 17 5 22 3 24 -14 15 -11 -6 -29 -8 -40 -6 -16 5 -19
2 -15 -14 3 -10 1 -17 -4 -13 -5 3 -9 1 -9 -5 0 -5 5 -13 10 -16 15 -9 12 -25
-5 -25 -13 0 -20 19 -16 44 1 5 -9 6 -22 4 -20 -4 -26 1 -36 29 -7 19 -19 33
-29 33 -14 0 -13 -2 3 -13 13 -10 15 -16 6 -21 -7 -5 -22 0 -34 11 l-22 18 20
-23 c11 -14 26 -21 37 -19 10 3 18 1 18 -4 0 -5 -5 -9 -11 -9 -6 0 -8 -9 -4
-22 7 -23 7 -23 -9 -3 -12 15 -18 17 -24 8 -6 -9 -12 -7 -22 7 -18 24 -33 25
-56 3 -16 -16 -16 -16 -10 7 3 14 3 19 0 13 -3 -7 -13 -13 -21 -13 -10 0 -14
-6 -10 -20 3 -11 1 -20 -4 -20 -5 0 -9 15 -9 33 0 23 -7 40 -22 53 -16 13 -19
14 -10 3 24 -31 22 -54 -4 -54 -29 0 -30 3 -6 22 16 14 16 14 0 9 -11 -3 -17
0 -15 7 1 7 -8 11 -27 8 -24 -2 -28 0 -24 16 4 13 0 19 -12 20 -11 1 -20 -7
-24 -20 -5 -22 -5 -22 -21 -2 -14 18 -16 19 -28 4 -11 -15 -14 -15 -27 -1 -8
9 -13 26 -12 38 4 29 -18 42 -25 15 -3 -12 -13 -21 -22 -21 -9 0 -22 -5 -29
-12 -7 -7 -12 -8 -12 -2 0 5 5 15 11 21 8 8 8 13 0 17 -6 4 -11 1 -11 -6 0 -9
-3 -9 -10 2 -7 10 -27 15 -67 15 -37 0 -58 4 -58 12 0 6 -3 15 -7 19 -5 4 -8
0 -8 -8 0 -11 -6 -14 -21 -11 -11 3 -18 11 -15 19 3 7 1 16 -5 19 -5 4 -7 11
-4 16 3 5 -1 6 -9 3 -24 -9 -20 22 6 59 33 47 86 95 148 135 47 30 70 37 153
48 l97 13 143 -48 c78 -26 158 -56 177 -66 19 -11 41 -18 49 -16 7 1 10 -2 7
-8 -3 -5 7 -19 23 -30 37 -27 54 -27 22 -1 -43 36 -8 21 173 -75 246 -132 401
-259 746 -614 l255 -263 90 -157 90 -158 18 -139 c18 -136 18 -141 -1 -229
-34 -155 -34 -153 -11 -160 10 -4 65 5 122 18 56 14 120 29 142 34 40 8 40 9
38 51 -1 24 -6 49 -11 55 -23 28 -8 62 40 87 25 14 55 33 66 43 20 18 20 18
28 -60 11 -123 -27 -1000 -61 -1378 -17 -187 -82 -668 -121 -895 -31 -182 -74
-344 -117 -446 -19 -43 -46 -117 -62 -163 -61 -185 -194 -431 -364 -671 -172
-244 -277 -365 -493 -567 -486 -456 -748 -633 -1623 -1099 l-449 -239 66 -3
67 -3 340 184 c247 134 341 180 341 168 0 -9 -13 -91 -29 -183 l-28 -168 1734
0 1733 0 0 5400 0 5400 -1442 0 -1443 0 30 -24 c44 -35 28 -39 -40 -8 l-60 27
-3922 3 -3923 2 0 -5400z m8398 5120 c126 -64 177 -100 171 -118 -5 -15 -99
32 -206 104 -77 52 -103 74 -88 74 4 0 59 -27 123 -60z m-27 -412 c8 -15 8
-18 0 -14 -6 4 -16 16 -22 28 -8 15 -8 18 0 14 6 -4 16 -16 22 -28z m-5610
-338 c-24 -149 -31 -230 -36 -420 -6 -218 -5 -249 19 -429 14 -107 26 -200 26
-207 0 -7 -24 -18 -57 -24 -32 -7 -69 -18 -83 -25 -14 -8 -52 -26 -85 -41 -33
-15 -64 -29 -68 -32 -5 -2 -6 24 -3 59 3 35 13 141 21 234 23 257 91 582 176
847 52 162 76 222 92 233 17 12 23 13 25 2 1 -7 -11 -96 -27 -197z m5737 132
c22 -32 182 -368 182 -383 0 -6 -20 6 -44 26 -30 25 -51 52 -62 83 -28 77 -92
223 -126 286 l-31 60 31 -22 c17 -13 40 -35 50 -50z m-1200 -257 c23 -211 26
-275 21 -410 -13 -306 -13 -305 -27 -305 -10 0 -12 59 -12 303 1 261 -6 456
-25 677 -4 51 -3 52 6 20 6 -19 23 -147 37 -285z m-160 -2432 c-4 -22 -22 -20
-26 1 -2 10 3 16 13 16 10 0 15 -7 13 -17z m-4078 -157 c0 -8 -4 -17 -9 -21
-12 -7 -24 12 -16 25 9 15 25 12 25 -4z m4430 -245 c0 -5 -7 -12 -16 -15 -14
-5 -15 -4 -4 9 14 17 20 19 20 6z m30 -38 c-11 -17 -11 -17 -6 0 3 10 7 26 7
35 1 15 2 15 6 0 2 -10 -1 -25 -7 -35z m140 -1 c0 -12 3 -13 12 -4 14 14 38
16 38 2 0 -5 -7 -7 -15 -4 -8 4 -17 -1 -21 -9 -5 -14 -8 -14 -24 0 -10 9 -16
22 -13 29 7 18 23 8 23 -14z m-23 -28 c-3 -3 -12 -4 -19 -1 -8 3 -5 6 6 6 11
1 17 -2 13 -5z m223 -29 c-7 -8 -19 -15 -27 -15 -13 0 -13 3 -3 15 7 8 16 12
21 9 5 -3 9 3 10 13 0 11 3 13 6 5 3 -7 -1 -19 -7 -27z m-4955 7 c-3 -3 -11 0
-18 7 -9 10 -8 11 6 5 10 -3 15 -9 12 -12z m5188 -28 c-8 -21 -23 -17 -23 6 0
13 5 18 14 14 8 -3 12 -12 9 -20z m-83 -5 c0 -6 -4 -7 -10 -4 -5 3 -10 11 -10
16 0 6 5 7 10 4 6 -3 10 -11 10 -16z m200 6 c0 -2 -10 -9 -22 -15 -22 -11 -22
-10 -4 4 21 17 26 19 26 11z m-5424 -54 c2 -6 0 -7 -2 -2 -3 5 -13 7 -24 4
-10 -3 -26 -1 -35 5 -13 7 -8 8 21 7 21 -2 39 -8 40 -14z m6139 -11 c0 -8 -8
-16 -17 -18 -13 -2 -18 3 -18 18 0 15 5 20 18 18 9 -2 17 -10 17 -18z m-6330
-29 c3 -5 1 -12 -5 -16 -5 -3 -10 1 -10 9 0 18 6 21 15 7z m-338 -115 c-3 -7
0 -19 6 -26 9 -10 9 -11 0 -6 -7 4 -13 2 -13 -3 0 -6 -4 -11 -10 -11 -6 0 -6
9 0 24 5 13 6 27 3 30 -4 3 -1 6 6 6 7 0 11 -6 8 -14z m5584 -55 c16 -16 29
-39 29 -50 0 -16 6 -21 26 -21 63 0 111 -100 63 -132 -19 -12 -20 -16 -8 -35
10 -16 11 -30 3 -50 -12 -37 -64 -44 -104 -15 -23 18 -32 19 -69 9 -42 -11
-44 -11 -72 21 -30 33 -35 56 -20 81 6 9 -1 22 -25 43 -35 31 -42 55 -24 87
13 25 35 32 65 21 24 -9 25 -8 25 24 0 41 5 46 47 46 25 0 43 -8 64 -29z
m-6373 -69 c2 -15 -2 -22 -12 -22 -11 0 -16 9 -16 26 0 31 23 28 28 -4z m1017
-139 c-5 -20 -3 -22 17 -14 66 24 91 -42 39 -101 -22 -25 -27 -40 -24 -64 9
-58 -61 -113 -106 -85 -11 7 -24 2 -44 -15 -56 -47 -113 -16 -89 48 10 27 9
34 -3 41 -9 5 -15 22 -15 43 0 44 49 99 80 91 16 -4 20 0 20 22 0 37 25 69 63
79 41 11 71 -11 62 -45z m7080 -243 c0 -42 -21 -50 -56 -21 -24 19 -24 19 -4
40 10 12 28 21 39 19 17 -2 21 -10 21 -38z m-2205 -50 c-19 -13 -30 -13 -30 0
0 6 10 10 23 10 18 0 19 -2 7 -10z m540 -75 c18 -21 8 -50 -18 -53 -28 -4 -62
23 -62 50 0 14 8 18 34 18 18 0 39 -7 46 -15z m-7124 -150 c6 -34 -7 -65 -27
-65 -10 0 -12 93 -3 103 12 12 23 -3 30 -38z m240 -2 c-10 -10 -19 5 -10 18 6
11 8 11 12 0 2 -7 1 -15 -2 -18z m-79 -9 c16 -25 16 -27 -2 -40 -29 -22 -54
-17 -61 11 -14 56 31 77 63 29z m1439 -38 c-7 -28 -50 -46 -68 -28 -16 16 0
50 30 60 34 12 46 1 38 -32z m7859 -2794 c5 -50 10 -62 22 -58 27 11 2 -36
-60 -112 -55 -68 -283 -270 -293 -260 -2 3 35 85 82 182 86 177 86 178 119
356 28 148 40 189 72 251 l38 74 6 -185 c3 -102 9 -213 14 -248z m-584 -246
c-6 -83 -20 -219 -32 -302 l-22 -151 -38 -32 c-30 -25 -60 -37 -141 -55 -57
-13 -105 -22 -107 -20 -2 2 25 54 61 116 60 107 158 313 173 368 4 14 30 83
58 155 61 153 64 148 48 -79z"/>
<path d="M7175 8684 c11 -3 81 -16 155 -30 74 -14 151 -30 170 -36 19 -6 48
-13 63 -14 15 -2 56 -11 90 -20 34 -9 69 -17 77 -19 50 -11 155 -40 219 -61
41 -13 76 -22 79 -20 2 2 -7 7 -20 11 -13 4 -41 16 -63 25 -22 10 -78 30 -125
45 -47 15 -94 31 -105 36 -11 4 -36 11 -55 15 -19 3 -41 11 -49 18 -8 6 -16
10 -18 9 -8 -7 -44 -2 -40 5 3 4 -9 7 -26 8 -18 0 -72 6 -122 12 -100 12 -261
24 -230 16z"/>
<path d="M2885 8491 c-11 -4 -40 -7 -65 -7 -25 1 -51 -5 -58 -11 -7 -7 -25
-14 -40 -14 -15 -1 -34 -3 -42 -3 -8 -1 -36 -12 -62 -24 -26 -12 -53 -22 -60
-22 -8 0 -23 -7 -35 -15 -12 -8 -30 -16 -42 -18 -11 -2 -23 -6 -27 -9 -3 -4
-13 -4 -22 -1 -9 4 -13 2 -9 -4 4 -7 -8 -16 -30 -24 -21 -6 -60 -25 -88 -41
-27 -16 -69 -38 -92 -50 -24 -12 -43 -26 -43 -30 0 -5 8 -5 18 0 51 26 134 62
187 82 33 12 83 30 110 41 28 10 56 19 62 19 6 0 24 6 40 14 38 18 91 36 128
42 25 5 67 18 235 77 8 3 2 5 -15 6 -16 0 -39 -4 -50 -8z"/>
<path d="M8050 8470 c8 -5 20 -10 25 -10 6 0 3 5 -5 10 -8 5 -19 10 -25 10 -5
0 -3 -5 5 -10z"/>
<path d="M2115 8190 c-3 -6 1 -7 9 -4 18 7 21 14 7 14 -6 0 -13 -4 -16 -10z"/>
<path d="M7700 7611 c-17 -12 -20 -12 82 -16 42 -2 86 -6 96 -10 11 -3 23 -1
27 5 3 6 -4 10 -17 11 -13 0 -32 2 -43 4 -66 12 -132 15 -145 6z"/>
<path d="M7505 7600 c-22 -5 -54 -11 -72 -14 -39 -7 -87 -25 -82 -30 2 -3 56
4 119 15 63 10 137 19 164 19 27 0 47 3 44 6 -10 10 -131 12 -173 4z"/>
<path d="M7920 7586 c0 -9 40 -13 46 -5 3 5 -6 9 -20 9 -14 0 -26 -2 -26 -4z"/>
<path d="M7985 7580 c-4 -6 3 -10 14 -10 25 0 27 6 6 13 -8 4 -17 2 -20 -3z"/>
<path d="M2415 7395 c-27 -7 -85 -20 -127 -29 -43 -10 -81 -23 -85 -29 -4 -7
0 -8 12 -3 35 13 195 46 224 46 29 0 49 14 34 23 -5 2 -30 -1 -58 -8z"/>
<path d="M2490 7401 c0 -5 5 -13 10 -16 6 -3 10 -2 10 4 0 5 -4 13 -10 16 -5
3 -10 2 -10 -4z"/>
<path d="M2555 7399 c4 -5 11 -7 16 -4 5 4 9 2 9 -3 0 -5 17 -8 38 -8 20 0 72
-3 116 -8 58 -6 77 -5 71 4 -4 6 -14 10 -23 8 -10 -1 -22 1 -28 4 -18 12 -205
18 -199 7z"/>
<path d="M7340 6916 c0 -9 5 -16 10 -16 6 0 10 4 10 9 0 6 -4 13 -10 16 -5 3
-10 -1 -10 -9z"/>
<path d="M7383 6905 c0 -12 3 -12 16 -3 9 7 18 14 20 15 2 2 -5 3 -16 3 -11 0
-20 -7 -20 -15z"/>
<path d="M7605 6870 c3 -5 8 -10 11 -10 2 0 4 5 4 10 0 6 -5 10 -11 10 -5 0
-7 -4 -4 -10z"/>
<path d="M7565 6831 c-3 -5 0 -13 6 -17 7 -4 9 -3 5 4 -3 5 0 13 6 15 9 4 10
6 1 6 -6 1 -14 -3 -18 -8z"/>
<path d="M7693 6825 c0 -8 4 -12 9 -9 5 3 6 10 3 15 -9 13 -12 11 -12 -6z"/>
<path d="M7806 6798 c3 -4 0 -8 -7 -8 -7 0 -10 -2 -8 -5 7 -6 49 6 49 14 0 4
-9 7 -19 7 -11 0 -17 -4 -15 -8z"/>
<path d="M7860 6790 c-8 -15 -8 -20 3 -20 7 0 13 9 13 20 0 11 -1 20 -3 20 -1
0 -7 -9 -13 -20z"/>
<path d="M7993 6788 c3 -9 1 -19 -6 -21 -7 -2 1 -6 16 -9 30 -6 31 -9 -12 42
-2 3 -1 -3 2 -12z"/>
<path d="M8139 6773 c-13 -16 -12 -17 4 -4 9 7 17 15 17 17 0 8 -8 3 -21 -13z"/>
<path d="M2610 6652 c0 -14 35 -21 51 -11 11 7 11 9 -3 9 -9 0 -23 3 -32 6 -9
3 -16 2 -16 -4z"/>
<path d="M2268 6623 c7 -3 16 -2 19 1 4 3 -2 6 -13 5 -11 0 -14 -3 -6 -6z"/>
<path d="M2346 6598 c3 -4 9 -8 15 -8 5 0 9 4 9 8 0 5 -7 9 -15 9 -8 0 -12 -4
-9 -9z"/>
<path d="M2216 6524 c-8 -22 -4 -25 11 -9 7 8 9 16 4 19 -5 3 -12 -1 -15 -10z"/>
<path d="M2975 5820 c-3 -5 -1 -10 4 -10 6 0 11 5 11 10 0 6 -2 10 -4 10 -3 0
-8 -4 -11 -10z"/>
<path d="M2851 5774 c0 -11 3 -14 6 -6 3 7 2 16 -1 19 -3 4 -6 -2 -5 -13z"/>
<path d="M7140 5741 c0 -5 5 -13 10 -16 6 -3 10 -2 10 4 0 5 -4 13 -10 16 -5
3 -10 2 -10 -4z"/>
<path d="M3001 5619 c-13 -22 -21 -43 -18 -46 3 -3 15 14 26 38 27 55 21 61
-8 8z"/>
<path d="M1850 5626 c0 -8 4 -17 9 -20 5 -4 7 3 4 14 -6 23 -13 26 -13 6z"/>
<path d="M4731 5558 c-46 -19 -64 -34 -127 -114 -41 -51 -74 -98 -74 -104 0
-6 -8 -23 -17 -38 -22 -35 -7 -20 47 48 24 30 70 83 103 117 55 56 65 62 123
74 67 13 79 23 42 33 -32 8 -36 7 -97 -16z"/>
<path d="M2935 5500 c-3 -5 -1 -10 4 -10 6 0 11 5 11 10 0 6 -2 10 -4 10 -3 0
-8 -4 -11 -10z"/>
<path d="M2727 5254 c-27 -14 -47 -28 -44 -30 5 -5 64 23 97 45 28 20 -5 10
-53 -15z"/>
<path d="M9340 5149 c-34 -36 -42 -50 -31 -54 17 -7 117 21 149 42 l24 15 -23
24 c-35 37 -67 30 -119 -27z"/>
<path d="M8150 5161 c24 -17 139 -53 153 -48 10 3 -67 31 -148 53 -16 4 -17 3
-5 -5z"/>
<path d="M8328 5103 c7 -3 16 -2 19 1 4 3 -2 6 -13 5 -11 0 -14 -3 -6 -6z"/>
<path d="M8398 5083 c7 -3 16 -2 19 1 4 3 -2 6 -13 5 -11 0 -14 -3 -6 -6z"/>
<path d="M8450 5070 c34 -11 60 -11 35 0 -11 5 -29 8 -40 8 -16 0 -15 -2 5 -8z"/>
<path d="M2130 5019 c-69 -28 -161 -65 -205 -84 -44 -18 -118 -43 -165 -55
-85 -23 -109 -34 -97 -46 8 -8 306 96 401 141 39 18 100 45 136 60 36 15 67
29 69 31 12 11 -26 -2 -139 -47z"/>
<path d="M8525 5052 c35 -16 81 -24 70 -13 -5 5 -28 12 -50 15 -27 4 -33 3
-20 -2z"/>
<path d="M957 4923 l-38 -27 23 -12 c30 -15 127 -34 145 -27 15 6 18 23 4 23
-5 0 -18 16 -30 35 -25 43 -52 45 -104 8z"/>
<path d="M5660 2860 c-58 -4 -139 -13 -180 -20 -41 -7 -95 -15 -120 -19 -25
-4 96 -10 270 -14 173 -4 325 -10 337 -13 51 -14 4 -24 -115 -25 -100 -1 -116
-3 -77 -9 68 -11 217 -12 233 -1 9 5 11 19 7 43 -13 69 -61 77 -355 58z"/>
<path d="M3865 2833 c-44 -7 -75 -40 -75 -80 0 -21 6 -36 15 -40 9 -3 59 -1
113 4 l97 10 -92 2 c-86 1 -126 13 -86 25 21 6 255 22 488 33 132 6 150 9 100
14 -33 4 -103 11 -155 17 -109 12 -361 21 -405 15z"/>
</g>
</svg>
